<mxfile host="app.diagrams.net" agent="Mozilla/5.0 (Windows NT 10.0; Win64; x64) AppleWebKit/537.36 (KHTML, like Gecko) Chrome/138.0.0.0 Safari/537.36" version="28.0.6">
  <diagram name="Page-1" id="kqHu5P8kQLfv8bYtoLaS">
    <mxGraphModel dx="1042" dy="574" grid="1" gridSize="10" guides="1" tooltips="1" connect="1" arrows="1" fold="1" page="1" pageScale="1" pageWidth="827" pageHeight="1169" background="light-dark(#FFFFFF,#FFFFFF)" math="0" shadow="0">
      <root>
        <mxCell id="0" />
        <mxCell id="1" parent="0" />
        <mxCell id="CDcVAYogB9XoRfXb_icX-1" value="" style="outlineConnect=0;dashed=0;verticalLabelPosition=bottom;verticalAlign=top;align=center;html=1;shape=mxgraph.aws3.traditional_server;fillColor=#7D7C7C;gradientColor=none;" vertex="1" parent="1">
          <mxGeometry x="370" y="70" width="70" height="120" as="geometry" />
        </mxCell>
        <mxCell id="CDcVAYogB9XoRfXb_icX-3" value="" style="endArrow=classic;html=1;rounded=0;entryX=1;entryY=0.5;entryDx=0;entryDy=0;entryPerimeter=0;strokeColor=#2D7600;strokeWidth=2;fillColor=#60a917;" edge="1" parent="1" target="CDcVAYogB9XoRfXb_icX-1">
          <mxGeometry width="50" height="50" relative="1" as="geometry">
            <mxPoint x="490" y="100" as="sourcePoint" />
            <mxPoint x="440" y="280" as="targetPoint" />
          </mxGeometry>
        </mxCell>
        <mxCell id="CDcVAYogB9XoRfXb_icX-5" value="" style="endArrow=classic;html=1;rounded=0;entryX=1;entryY=0.5;entryDx=0;entryDy=0;entryPerimeter=0;strokeColor=#2D7600;strokeWidth=2;exitX=0;exitY=0.5;exitDx=0;exitDy=0;fillColor=#60a917;" edge="1" parent="1" source="CDcVAYogB9XoRfXb_icX-11" target="CDcVAYogB9XoRfXb_icX-1">
          <mxGeometry width="50" height="50" relative="1" as="geometry">
            <mxPoint x="490" y="160" as="sourcePoint" />
            <mxPoint x="460" y="150" as="targetPoint" />
          </mxGeometry>
        </mxCell>
        <mxCell id="CDcVAYogB9XoRfXb_icX-6" value="" style="endArrow=classic;html=1;rounded=0;strokeColor=#2D7600;strokeWidth=2;exitX=1;exitY=0.5;exitDx=0;exitDy=0;fillColor=#60a917;" edge="1" parent="1" source="CDcVAYogB9XoRfXb_icX-13">
          <mxGeometry width="50" height="50" relative="1" as="geometry">
            <mxPoint x="320" y="160" as="sourcePoint" />
            <mxPoint x="370" y="130" as="targetPoint" />
          </mxGeometry>
        </mxCell>
        <mxCell id="CDcVAYogB9XoRfXb_icX-7" value="" style="endArrow=classic;html=1;rounded=0;strokeColor=#2D7600;strokeWidth=2;entryX=0;entryY=0.5;entryDx=0;entryDy=0;entryPerimeter=0;fillColor=#60a917;" edge="1" parent="1" target="CDcVAYogB9XoRfXb_icX-1">
          <mxGeometry width="50" height="50" relative="1" as="geometry">
            <mxPoint x="320" y="100" as="sourcePoint" />
            <mxPoint x="340" y="180" as="targetPoint" />
          </mxGeometry>
        </mxCell>
        <mxCell id="CDcVAYogB9XoRfXb_icX-10" value="&lt;font style=&quot;color: light-dark(rgb(0, 0, 0), rgb(0, 0, 0)); font-size: 13px;&quot;&gt;&lt;b&gt;Samba Ad-dc&lt;/b&gt;&lt;/font&gt;" style="text;html=1;align=center;verticalAlign=middle;whiteSpace=wrap;rounded=0;" vertex="1" parent="1">
          <mxGeometry x="490" y="80" width="90" height="30" as="geometry" />
        </mxCell>
        <mxCell id="CDcVAYogB9XoRfXb_icX-11" value="&lt;font style=&quot;color: light-dark(rgb(0, 0, 0), rgb(0, 0, 0)); font-size: 13px;&quot;&gt;&lt;b&gt;PostFix&lt;/b&gt;&lt;/font&gt;" style="text;html=1;align=center;verticalAlign=middle;whiteSpace=wrap;rounded=0;" vertex="1" parent="1">
          <mxGeometry x="490" y="140" width="60" height="30" as="geometry" />
        </mxCell>
        <mxCell id="CDcVAYogB9XoRfXb_icX-12" value="&lt;font style=&quot;color: light-dark(rgb(0, 0, 0), rgb(0, 0, 0)); font-size: 13px;&quot;&gt;&lt;b&gt;Dovecot&lt;/b&gt;&lt;/font&gt;" style="text;html=1;align=center;verticalAlign=middle;whiteSpace=wrap;rounded=0;" vertex="1" parent="1">
          <mxGeometry x="260" y="80" width="60" height="30" as="geometry" />
        </mxCell>
        <mxCell id="CDcVAYogB9XoRfXb_icX-13" value="&lt;font style=&quot;color: light-dark(rgb(0, 0, 0), rgb(0, 0, 0)); font-size: 13px;&quot;&gt;&lt;b&gt;OpenSSL&lt;/b&gt;&lt;/font&gt;" style="text;html=1;align=center;verticalAlign=middle;whiteSpace=wrap;rounded=0;" vertex="1" parent="1">
          <mxGeometry x="260" y="140" width="60" height="30" as="geometry" />
        </mxCell>
        <mxCell id="CDcVAYogB9XoRfXb_icX-14" value="&lt;font style=&quot;color: light-dark(rgb(0, 0, 0), rgb(255, 0, 0)); font-size: 14px;&quot;&gt;&lt;b style=&quot;&quot;&gt;Ubuntu&amp;nbsp;&lt;/b&gt;&lt;/font&gt;&lt;b style=&quot;color: light-dark(rgb(0, 0, 0), rgb(255, 0, 0)); font-size: 14px; background-color: transparent;&quot;&gt;Server&lt;/b&gt;" style="text;html=1;align=center;verticalAlign=middle;whiteSpace=wrap;rounded=0;" vertex="1" parent="1">
          <mxGeometry x="345" y="10" width="120" height="30" as="geometry" />
        </mxCell>
        <mxCell id="CDcVAYogB9XoRfXb_icX-15" value="" style="endArrow=classic;html=1;rounded=0;entryX=0.5;entryY=1;entryDx=0;entryDy=0;entryPerimeter=0;strokeColor=#2D7600;strokeWidth=2;fillColor=#60a917;" edge="1" parent="1" target="CDcVAYogB9XoRfXb_icX-1">
          <mxGeometry width="50" height="50" relative="1" as="geometry">
            <mxPoint x="405" y="230" as="sourcePoint" />
            <mxPoint x="440" y="270" as="targetPoint" />
          </mxGeometry>
        </mxCell>
        <mxCell id="CDcVAYogB9XoRfXb_icX-16" value="&lt;b&gt;&lt;font style=&quot;font-size: 13px; color: light-dark(rgb(0, 0, 0), rgb(0, 0, 0));&quot;&gt;DHCP&lt;/font&gt;&lt;/b&gt;" style="text;html=1;align=center;verticalAlign=middle;whiteSpace=wrap;rounded=0;" vertex="1" parent="1">
          <mxGeometry x="375" y="230" width="60" height="30" as="geometry" />
        </mxCell>
        <mxCell id="CDcVAYogB9XoRfXb_icX-19" value="" style="shape=mxgraph.signs.tech.computer;html=1;pointerEvents=1;verticalLabelPosition=bottom;verticalAlign=top;align=center;" vertex="1" parent="1">
          <mxGeometry x="130" y="340" width="70" height="70" as="geometry" />
        </mxCell>
        <mxCell id="CDcVAYogB9XoRfXb_icX-21" value="" style="shape=mxgraph.signs.tech.computer;html=1;pointerEvents=1;verticalLabelPosition=bottom;verticalAlign=top;align=center;" vertex="1" parent="1">
          <mxGeometry x="600" y="340" width="70" height="70" as="geometry" />
        </mxCell>
        <mxCell id="CDcVAYogB9XoRfXb_icX-22" value="" style="endArrow=none;dashed=1;html=1;rounded=0;exitX=0.99;exitY=0.007;exitDx=0;exitDy=0;exitPerimeter=0;fillColor=#1ba1e2;strokeColor=#006EAF;entryX=0.02;entryY=0.98;entryDx=0;entryDy=0;entryPerimeter=0;strokeWidth=2;" edge="1" parent="1" source="CDcVAYogB9XoRfXb_icX-19" target="CDcVAYogB9XoRfXb_icX-1">
          <mxGeometry width="50" height="50" relative="1" as="geometry">
            <mxPoint x="390" y="320" as="sourcePoint" />
            <mxPoint x="360" y="190" as="targetPoint" />
          </mxGeometry>
        </mxCell>
        <mxCell id="CDcVAYogB9XoRfXb_icX-23" value="" style="endArrow=none;dashed=1;html=1;rounded=0;exitX=0.98;exitY=0.98;exitDx=0;exitDy=0;exitPerimeter=0;fillColor=#1ba1e2;strokeColor=#006EAF;entryX=0.007;entryY=0.007;entryDx=0;entryDy=0;entryPerimeter=0;strokeWidth=2;" edge="1" parent="1" source="CDcVAYogB9XoRfXb_icX-1" target="CDcVAYogB9XoRfXb_icX-21">
          <mxGeometry width="50" height="50" relative="1" as="geometry">
            <mxPoint x="399.7" y="372.4" as="sourcePoint" />
            <mxPoint x="571.7" y="220.4" as="targetPoint" />
          </mxGeometry>
        </mxCell>
        <mxCell id="CDcVAYogB9XoRfXb_icX-25" value="&lt;b&gt;&lt;font style=&quot;color: light-dark(rgb(0, 0, 0), rgb(0, 0, 0)); font-size: 13px;&quot;&gt;Client 2&lt;/font&gt;&lt;/b&gt;" style="text;html=1;align=center;verticalAlign=middle;whiteSpace=wrap;rounded=0;" vertex="1" parent="1">
          <mxGeometry x="605" y="350" width="60" height="30" as="geometry" />
        </mxCell>
        <mxCell id="CDcVAYogB9XoRfXb_icX-26" value="&lt;b&gt;&lt;font style=&quot;color: light-dark(rgb(0, 0, 0), rgb(0, 0, 0)); font-size: 13px;&quot;&gt;Client 1&lt;/font&gt;&lt;/b&gt;" style="text;html=1;align=center;verticalAlign=middle;whiteSpace=wrap;rounded=0;" vertex="1" parent="1">
          <mxGeometry x="135" y="350" width="60" height="30" as="geometry" />
        </mxCell>
        <mxCell id="CDcVAYogB9XoRfXb_icX-27" value="&lt;b&gt;&lt;font style=&quot;font-size: 13px; color: light-dark(rgb(0, 0, 0), rgb(255, 0, 0));&quot;&gt;Windows 10&lt;/font&gt;&lt;/b&gt;" style="text;html=1;align=center;verticalAlign=middle;whiteSpace=wrap;rounded=0;" vertex="1" parent="1">
          <mxGeometry x="125" y="410" width="80" height="30" as="geometry" />
        </mxCell>
        <mxCell id="CDcVAYogB9XoRfXb_icX-28" value="&lt;b&gt;&lt;font style=&quot;font-size: 13px; color: light-dark(rgb(0, 0, 0), rgb(255, 0, 0));&quot;&gt;Windows 10&lt;/font&gt;&lt;/b&gt;" style="text;html=1;align=center;verticalAlign=middle;whiteSpace=wrap;rounded=0;" vertex="1" parent="1">
          <mxGeometry x="595" y="410" width="80" height="30" as="geometry" />
        </mxCell>
        <mxCell id="CDcVAYogB9XoRfXb_icX-29" value="" style="endArrow=none;dashed=1;html=1;dashPattern=1 3;strokeWidth=3;rounded=0;fillColor=#a20025;strokeColor=#6F0000;" edge="1" parent="1">
          <mxGeometry width="50" height="50" relative="1" as="geometry">
            <mxPoint x="220" y="260" as="sourcePoint" />
            <mxPoint x="600" y="260" as="targetPoint" />
          </mxGeometry>
        </mxCell>
        <mxCell id="CDcVAYogB9XoRfXb_icX-30" value="" style="endArrow=none;dashed=1;html=1;dashPattern=1 3;strokeWidth=3;rounded=0;fillColor=#a20025;strokeColor=#6F0000;" edge="1" parent="1">
          <mxGeometry width="50" height="50" relative="1" as="geometry">
            <mxPoint x="220" y="260" as="sourcePoint" />
            <mxPoint x="220" y="40" as="targetPoint" />
          </mxGeometry>
        </mxCell>
        <mxCell id="CDcVAYogB9XoRfXb_icX-31" value="" style="endArrow=none;dashed=1;html=1;dashPattern=1 3;strokeWidth=3;rounded=0;fillColor=#a20025;strokeColor=#6F0000;" edge="1" parent="1">
          <mxGeometry width="50" height="50" relative="1" as="geometry">
            <mxPoint x="600" y="260" as="sourcePoint" />
            <mxPoint x="600" y="40" as="targetPoint" />
          </mxGeometry>
        </mxCell>
        <mxCell id="CDcVAYogB9XoRfXb_icX-32" value="" style="endArrow=none;dashed=1;html=1;dashPattern=1 3;strokeWidth=3;rounded=0;fillColor=#a20025;strokeColor=#6F0000;" edge="1" parent="1">
          <mxGeometry width="50" height="50" relative="1" as="geometry">
            <mxPoint x="600" y="40" as="sourcePoint" />
            <mxPoint x="220" y="40" as="targetPoint" />
          </mxGeometry>
        </mxCell>
        <mxCell id="CDcVAYogB9XoRfXb_icX-34" value="&lt;b&gt;&lt;font style=&quot;font-size: 14px; color: light-dark(rgb(0, 0, 0), rgb(0, 0, 255));&quot;&gt;VM Machine&lt;/font&gt;&lt;/b&gt;" style="text;html=1;align=center;verticalAlign=middle;whiteSpace=wrap;rounded=0;" vertex="1" parent="1">
          <mxGeometry x="375" y="140" width="60" height="30" as="geometry" />
        </mxCell>
        <mxCell id="CDcVAYogB9XoRfXb_icX-35" value="&lt;b&gt;&lt;font style=&quot;font-size: 13px; color: light-dark(rgb(0, 0, 0), rgb(0, 0, 0));&quot;&gt;Thunderbird&lt;/font&gt;&lt;/b&gt;" style="text;html=1;align=center;verticalAlign=middle;whiteSpace=wrap;rounded=0;" vertex="1" parent="1">
          <mxGeometry x="592" y="310" width="86" height="30" as="geometry" />
        </mxCell>
        <mxCell id="CDcVAYogB9XoRfXb_icX-36" value="&lt;b&gt;&lt;font style=&quot;font-size: 13px; color: light-dark(rgb(0, 0, 0), rgb(0, 0, 0));&quot;&gt;Thunderbird&lt;/font&gt;&lt;/b&gt;" style="text;html=1;align=center;verticalAlign=middle;whiteSpace=wrap;rounded=0;" vertex="1" parent="1">
          <mxGeometry x="122" y="310" width="86" height="30" as="geometry" />
        </mxCell>
        <mxCell id="CDcVAYogB9XoRfXb_icX-37" value="" style="shape=image;html=1;verticalAlign=top;verticalLabelPosition=bottom;labelBackgroundColor=#ffffff;imageAspect=0;aspect=fixed;image=https://icons.diagrams.net/icon-cache1/Perqui-2061/thunderbird-1087.png" vertex="1" parent="1">
          <mxGeometry x="150" y="290" width="30" height="30" as="geometry" />
        </mxCell>
        <mxCell id="CDcVAYogB9XoRfXb_icX-38" value="" style="shape=image;html=1;verticalAlign=top;verticalLabelPosition=bottom;labelBackgroundColor=#ffffff;imageAspect=0;aspect=fixed;image=https://icons.diagrams.net/icon-cache1/Perqui-2061/thunderbird-1087.png" vertex="1" parent="1">
          <mxGeometry x="620" y="290" width="30" height="30" as="geometry" />
        </mxCell>
        <mxCell id="CDcVAYogB9XoRfXb_icX-41" value="" style="endArrow=classic;html=1;rounded=0;strokeColor=light-dark(#000000,#000000);strokeWidth=2;" edge="1" parent="1">
          <mxGeometry width="50" height="50" relative="1" as="geometry">
            <mxPoint x="250" y="280" as="sourcePoint" />
            <mxPoint x="300" y="230" as="targetPoint" />
          </mxGeometry>
        </mxCell>
        <mxCell id="CDcVAYogB9XoRfXb_icX-42" value="" style="endArrow=classic;html=1;rounded=0;strokeColor=light-dark(#000000,#000000);strokeWidth=2;" edge="1" parent="1">
          <mxGeometry width="50" height="50" relative="1" as="geometry">
            <mxPoint x="510" y="230" as="sourcePoint" />
            <mxPoint x="560" y="280" as="targetPoint" />
          </mxGeometry>
        </mxCell>
        <mxCell id="CDcVAYogB9XoRfXb_icX-43" value="" style="endArrow=classic;html=1;rounded=0;strokeColor=light-dark(#000000,#000000);strokeWidth=2;" edge="1" parent="1">
          <mxGeometry width="50" height="50" relative="1" as="geometry">
            <mxPoint x="320" y="250" as="sourcePoint" />
            <mxPoint x="270" y="300" as="targetPoint" />
          </mxGeometry>
        </mxCell>
        <mxCell id="CDcVAYogB9XoRfXb_icX-44" value="" style="endArrow=classic;html=1;rounded=0;strokeColor=light-dark(#000000,#000000);strokeWidth=2;" edge="1" parent="1">
          <mxGeometry width="50" height="50" relative="1" as="geometry">
            <mxPoint x="530" y="300" as="sourcePoint" />
            <mxPoint x="480" y="250" as="targetPoint" />
          </mxGeometry>
        </mxCell>
        <mxCell id="CDcVAYogB9XoRfXb_icX-56" value="" style="shape=message;html=1;html=1;outlineConnect=0;labelPosition=center;verticalLabelPosition=bottom;align=center;verticalAlign=top;rotation=-45;" vertex="1" parent="1">
          <mxGeometry x="230" y="222.5" width="35" height="20" as="geometry" />
        </mxCell>
        <mxCell id="CDcVAYogB9XoRfXb_icX-60" value="" style="shape=message;html=1;html=1;outlineConnect=0;labelPosition=center;verticalLabelPosition=bottom;align=center;verticalAlign=top;rotation=-45;direction=south;" vertex="1" parent="1">
          <mxGeometry x="550" y="215" width="20" height="35" as="geometry" />
        </mxCell>
        <mxCell id="CDcVAYogB9XoRfXb_icX-68" value="&lt;b&gt;&lt;font style=&quot;color: light-dark(rgb(0, 0, 0), rgb(204, 0, 0)); font-size: 11px;&quot;&gt;SMTP&lt;/font&gt;&lt;/b&gt;" style="text;html=1;align=center;verticalAlign=middle;whiteSpace=wrap;rounded=0;rotation=-45;" vertex="1" parent="1">
          <mxGeometry x="233.21" y="238.83" width="60" height="20" as="geometry" />
        </mxCell>
        <mxCell id="CDcVAYogB9XoRfXb_icX-69" value="&lt;b&gt;&lt;font style=&quot;color: light-dark(rgb(0, 0, 0), rgb(204, 0, 0)); font-size: 11px;&quot;&gt;SMTP&lt;/font&gt;&lt;/b&gt;" style="text;html=1;align=center;verticalAlign=middle;whiteSpace=wrap;rounded=0;rotation=45;" vertex="1" parent="1">
          <mxGeometry x="510" y="230" width="60" height="30" as="geometry" />
        </mxCell>
        <mxCell id="CDcVAYogB9XoRfXb_icX-75" value="" style="sketch=0;html=1;aspect=fixed;strokeColor=none;shadow=0;fillColor=light-dark(#3B8DF1,#FF0000);verticalAlign=top;labelPosition=center;verticalLabelPosition=bottom;shape=mxgraph.gcp2.key;rotation=45;" vertex="1" parent="1">
          <mxGeometry x="560" y="212.50000000000003" width="21.27" height="10" as="geometry" />
        </mxCell>
        <mxCell id="CDcVAYogB9XoRfXb_icX-76" value="" style="sketch=0;html=1;aspect=fixed;strokeColor=none;shadow=0;fillColor=light-dark(#3B8DF1,#FF0000);verticalAlign=top;labelPosition=center;verticalLabelPosition=bottom;shape=mxgraph.gcp2.key;rotation=-45;" vertex="1" parent="1">
          <mxGeometry x="220" y="220.00000000000003" width="21.27" height="10" as="geometry" />
        </mxCell>
        <mxCell id="CDcVAYogB9XoRfXb_icX-77" value="&lt;font style=&quot;font-size: 14px;&quot;&gt;&lt;b style=&quot;&quot;&gt;&lt;font style=&quot;color: light-dark(rgb(0, 0, 0), rgb(0, 0, 0));&quot;&gt;DOMAINE NAME :&lt;/font&gt;&lt;font style=&quot;color: light-dark(rgb(0, 0, 0), rgb(204, 0, 0));&quot;&gt; CMC.MA&lt;/font&gt;&lt;/b&gt;&lt;/font&gt;" style="text;html=1;align=center;verticalAlign=middle;whiteSpace=wrap;rounded=0;" vertex="1" parent="1">
          <mxGeometry x="310" y="410" width="190" height="30" as="geometry" />
        </mxCell>
      </root>
    </mxGraphModel>
  </diagram>
</mxfile>
